<?xml version="1.0" encoding="UTF-8"?> <svg xmlns="http://www.w3.org/2000/svg" width="111" height="60" viewBox="0 0 111 60" fill="none"><g clip-path="url(#clip0_7815_36681)"><path opacity="0.997" fill-rule="evenodd" clip-rule="evenodd" d="M43.0162 -0.0136719C54.5962 -0.0136719 66.1759 -0.0136719 77.7559 -0.0136719C77.3336 2.12479 76.9044 4.26194 76.4682 6.39775C64.8882 6.42458 53.3085 6.43351 41.7285 6.42458C42.1542 4.2778 42.5835 2.13172 43.0162 -0.0136719Z" fill="black"></path><path opacity="0.997" fill-rule="evenodd" clip-rule="evenodd" d="M40.8931 9.93945C52.4731 9.93945 64.0528 9.93945 75.6328 9.93945C75.2173 12.0794 74.7881 14.2165 74.3452 16.3509C62.7652 16.3777 51.1855 16.3866 39.6055 16.3777C40.0312 14.2309 40.4604 12.0848 40.8931 9.93945Z" fill="black"></path><path opacity="0.996" fill-rule="evenodd" clip-rule="evenodd" d="M38.8305 20.1872C42.3716 20.1827 45.9126 20.1872 49.4537 20.2006C50.4878 20.2771 51.4358 20.599 52.2972 21.1664C53.4269 22.0418 53.8786 23.1908 53.6519 24.6135C53.3957 26.1779 52.5955 27.3715 51.251 28.1948C50.4076 28.6787 49.5132 29.0363 48.5684 29.2678C49.5205 29.4178 50.3877 29.7665 51.1705 30.3141C51.7787 30.8101 52.1408 31.4496 52.257 32.2321C52.4198 34.0418 51.8744 35.5977 50.6206 36.8998C49.3732 38.136 47.8666 38.8201 46.1004 38.952C45.4941 39.0218 44.8863 39.0663 44.2762 39.0862C41.1196 39.0996 37.9633 39.1041 34.8066 39.0996C36.1343 32.7925 37.4756 26.4884 38.8305 20.1872ZM43.2837 23.5673C44.3747 23.5628 45.4654 23.5673 46.5564 23.5807C47.7564 23.6536 48.2975 24.284 48.1794 25.472C47.8693 27.0654 46.899 27.8211 45.2688 27.7388C44.3119 27.761 43.355 27.7567 42.3984 27.7253C42.7037 26.3414 42.9988 24.9554 43.2837 23.5673ZM41.6741 31.1323C42.7115 31.1277 43.7486 31.1323 44.7859 31.1457C46.7469 31.2744 47.3593 32.2536 46.6235 34.0831C46.2109 34.8882 45.5537 35.3667 44.6518 35.5183C44.4299 35.5602 44.2065 35.587 43.9811 35.5988C42.8993 35.6122 41.8171 35.6168 40.7352 35.6122C41.0515 34.1196 41.3645 32.6262 41.6741 31.1323Z" fill="black"></path><path opacity="0.994" fill-rule="evenodd" clip-rule="evenodd" d="M0.791016 35.0503C0.791016 34.6927 0.791016 34.3349 0.791016 33.9773C0.844205 33.632 0.897858 33.2833 0.951972 32.9311C2.71355 32.9311 4.47512 32.9311 6.2367 32.9311C5.84362 34.6005 6.49638 35.526 8.195 35.7076C9.00306 35.7942 9.78997 35.7049 10.5557 35.4393C11.5041 35.0238 12.0138 34.2952 12.0848 33.253C12.0569 32.7634 11.8245 32.4101 11.3873 32.1934C11.2058 32.1059 11.018 32.0345 10.824 31.9787C9.20428 31.5538 7.58578 31.1246 5.96844 30.6911C2.99729 29.7517 2.0539 27.8159 3.13829 24.8833C3.56244 23.8515 4.21075 22.9886 5.08318 22.2945C6.39565 21.2768 7.88001 20.6464 9.53631 20.4033C10.9262 20.2023 12.3212 20.1621 13.7212 20.2826C14.5683 20.3519 15.3909 20.5307 16.1892 20.8191C18.1274 21.6052 18.9367 23.0404 18.6169 25.1247C18.5764 25.4127 18.5272 25.6988 18.4694 25.9831C16.6989 25.9831 14.9283 25.9831 13.1578 25.9831C13.1838 25.7948 13.2151 25.607 13.2517 25.4198C13.3824 24.3522 12.9219 23.7217 11.8702 23.5285C10.8554 23.3598 9.9344 23.5744 9.10709 24.1724C8.52746 24.6591 8.27261 25.2806 8.34255 26.0368C8.41364 26.3137 8.56118 26.5417 8.78518 26.7208C8.96558 26.8558 9.1623 26.9631 9.37535 27.0428C10.7936 27.4398 12.2154 27.8242 13.6407 28.1963C14.5219 28.4272 15.3624 28.7583 16.1623 29.1888C17.1611 29.8447 17.6619 30.7748 17.6646 31.9787C17.5393 34.5562 16.3589 36.4697 14.1236 37.7195C12.4151 38.5914 10.5999 39.0474 8.67787 39.0877C7.37024 39.1523 6.07365 39.0627 4.7881 38.8194C3.80455 38.6359 2.91928 38.2424 2.13232 37.639C1.34776 36.9507 0.900657 36.0877 0.791016 35.0503Z" fill="black"></path><path opacity="0.996" fill-rule="evenodd" clip-rule="evenodd" d="M22.2265 20.2422C27.0194 20.2422 31.8123 20.2422 36.6053 20.2422C36.359 21.4503 36.1087 22.6574 35.8541 23.8637C32.8139 23.8637 29.7735 23.8637 26.7333 23.8637C26.4492 25.1678 26.172 26.4733 25.9017 27.7803C28.7541 27.7803 31.6068 27.7803 34.4592 27.7803C34.2033 28.9883 33.9439 30.1955 33.6812 31.4018C30.8197 31.393 27.9582 31.4018 25.0969 31.4286C24.8124 32.7576 24.5262 34.0855 24.2385 35.4123C27.3503 35.4169 30.4621 35.4303 33.5739 35.4526C33.3057 36.6597 33.0374 37.8669 32.7691 39.0741C27.9048 39.1097 23.0402 39.1097 18.1758 39.0741C19.5329 32.7981 20.8831 26.5209 22.2265 20.2422Z" fill="black"></path><path opacity="0.995" fill-rule="evenodd" clip-rule="evenodd" d="M56.9355 20.24C60.4677 20.2355 63.9996 20.24 67.5318 20.2534C68.4868 20.2263 69.408 20.3872 70.2949 20.7362C71.4079 21.2966 72.0115 22.2042 72.1056 23.4591C72.1751 26.8319 70.561 28.8664 67.2635 29.562C66.9703 29.6261 66.6752 29.6798 66.3783 29.723C66.3404 29.7329 66.3136 29.7552 66.2978 29.79C66.888 29.8174 67.469 29.9022 68.0415 30.0449C69.0539 30.3118 69.6038 30.969 69.6913 32.0166C69.7186 32.284 69.7321 32.5523 69.7315 32.8214C69.6712 34.1273 69.6041 35.4326 69.5303 36.738C69.5048 37.499 69.5137 38.259 69.5571 39.0182C73.4134 32.7991 77.2629 26.5754 81.1058 20.3473C83.2787 20.3204 85.4516 20.3115 87.6245 20.3204C88.7767 26.5817 89.939 32.8412 91.1119 39.0987C89.1088 39.1075 87.1057 39.0987 85.1028 39.0718C84.9263 37.8301 84.7565 36.5872 84.5931 35.343C82.0447 35.3342 79.4962 35.343 76.9477 35.3698C76.2468 36.6063 75.5493 37.8445 74.8553 39.0853C71.1622 39.0987 67.4693 39.1032 63.7761 39.0987C63.7708 38.6064 63.7842 38.1144 63.8164 37.6232C63.9425 36.1929 64.0632 34.7622 64.1785 33.3311C64.1938 32.9563 64.109 32.6076 63.9237 32.2849C63.7496 32.0748 63.5304 31.9361 63.2664 31.8691C63.0365 31.8159 62.8042 31.78 62.569 31.7617C62.1129 31.7572 61.6569 31.7529 61.2008 31.7483C60.7343 31.7486 60.274 31.7663 59.8193 31.802C59.2911 34.2335 58.768 36.6658 58.25 39.0987C56.4615 39.1075 54.673 39.0987 52.8848 39.0718C54.2435 32.7962 55.5937 26.519 56.9355 20.24ZM61.5496 23.7273C62.5784 23.7173 63.6066 23.7307 64.6346 23.7676C65.0203 23.7871 65.3959 23.8587 65.7613 23.9822C66.3785 24.2458 66.6913 24.7152 66.7002 25.3906C66.573 27.3019 65.5536 28.2719 63.642 28.3012C62.6226 28.3146 61.6032 28.3192 60.5838 28.3146C60.9058 26.7855 61.2277 25.2564 61.5496 23.7273ZM83.2787 24.0224C83.3055 24.0224 83.3323 24.0224 83.3591 24.0224C83.6059 26.6338 83.8562 29.2449 84.1103 31.8556C82.3934 31.8602 80.6765 31.8556 78.9597 31.8422C80.4171 29.2449 81.8566 26.6383 83.2787 24.0224Z" fill="black"></path><path opacity="0.996" fill-rule="evenodd" clip-rule="evenodd" d="M110.674 20.2422C110.674 20.2869 110.674 20.3316 110.674 20.3763C110.416 21.5339 110.165 22.6964 109.923 23.8637C106.882 23.8637 103.842 23.8637 100.802 23.8637C100.525 25.1692 100.247 26.4747 99.97 27.7803C102.822 27.7803 105.675 27.7803 108.528 27.7803C108.282 28.9813 108.023 30.1796 107.75 31.375C104.888 31.4018 102.027 31.4107 99.1653 31.4018C98.8812 32.7418 98.6041 34.0831 98.3337 35.4257C101.437 35.4257 104.539 35.4257 107.642 35.4257C107.383 36.6487 107.114 37.8693 106.838 39.0875C101.973 39.1055 97.1085 39.1055 92.2441 39.0875C93.6064 32.8088 94.9565 26.5271 96.2949 20.2422C101.088 20.2422 105.881 20.2422 110.674 20.2422Z" fill="black"></path><path opacity="0.997" fill-rule="evenodd" clip-rule="evenodd" d="M33.9478 42.9883C45.5278 42.9883 57.1075 42.9883 68.6875 42.9883C68.2653 45.1269 67.8361 47.2638 67.3999 49.3997C55.8199 49.4265 44.2402 49.4354 32.6602 49.4265C33.0859 47.2796 33.5151 45.1336 33.9478 42.9883Z" fill="black"></path><path opacity="0.997" fill-rule="evenodd" clip-rule="evenodd" d="M65.2827 59.3797C53.7027 59.3797 42.123 59.3797 30.543 59.3797C30.9687 57.2328 31.3979 55.0867 31.8306 52.9414C43.4106 52.9414 54.9903 52.9414 66.5703 52.9414C66.1513 55.0896 65.7221 57.2357 65.2827 59.3797Z" fill="black"></path></g><defs><clipPath id="clip0_7815_36681"><rect width="109.879" height="59.3928" fill="white" transform="translate(0.806641)"></rect></clipPath></defs></svg> 